<svg width="20" height="10" viewBox="0 0 20 10" fill="none" xmlns="http://www.w3.org/2000/svg">
<path d="M9.99826 1.07143C7.73457 1.07143 5.87362 1.73214 4.44666 2.58259C3.10997 3.3817 2.18644 4.33036 1.71426 5C2.18644 5.66964 3.10997 6.6183 4.44319 7.41741C5.87362 8.26786 7.73457 8.92857 9.99826 8.92857C12.262 8.92857 14.1229 8.26786 15.5499 7.41741C16.8866 6.6183 17.8101 5.66964 18.2823 5C17.8101 4.33036 16.8866 3.3817 15.5533 2.58259C14.1229 1.73214 12.262 1.07143 9.99826 1.07143ZM3.31134 1.79911C4.94662 0.821429 7.19295 0 9.99826 0C12.8036 0 15.0499 0.821429 16.6852 1.79911C18.31 2.77009 19.3968 3.92857 19.9141 4.72545C20.0286 4.90179 20.0286 5.09821 19.9141 5.27455C19.3968 6.07143 18.31 7.23214 16.6852 8.20089C15.0499 9.17857 12.8036 10 9.99826 10C7.19295 10 4.94662 9.17857 3.31134 8.20089C1.68649 7.23214 0.599774 6.07143 0.08593 5.27455C-0.0286433 5.09821 -0.0286433 4.90179 0.08593 4.72545C0.599774 3.92857 1.68649 2.76786 3.31134 1.79911ZM9.99826 6.78571C11.5329 6.78571 12.7758 5.98661 12.7758 5C12.7758 4.01339 11.5329 3.21429 9.99826 3.21429C9.97396 3.21429 9.95313 3.21429 9.92883 3.21429C9.97396 3.32812 9.99826 3.44866 9.99826 3.57143C9.99826 4.35938 9.00182 5 7.77624 5C7.58528 5 7.3978 4.98438 7.22073 4.95536C7.22073 4.97098 7.22073 4.98438 7.22073 5C7.22073 5.98661 8.46368 6.78571 9.99826 6.78571ZM9.99826 2.14286C11.1769 2.14286 12.3073 2.44388 13.1407 2.97969C13.9741 3.51551 14.4423 4.24224 14.4423 5C14.4423 5.75776 13.9741 6.48449 13.1407 7.02031C12.3073 7.55612 11.1769 7.85714 9.99826 7.85714C8.81963 7.85714 7.68926 7.55612 6.85584 7.02031C6.02242 6.48449 5.55421 5.75776 5.55421 5C5.55421 4.24224 6.02242 3.51551 6.85584 2.97969C7.68926 2.44388 8.81963 2.14286 9.99826 2.14286Z" fill="black"/>
</svg>
